<?xml version="1.0" encoding="UTF-8" standalone="no"?>
<!--Generator: Apple Native CoreSVG 341-->

<svg
   version="1.1"
   viewBox="0 0 24.4531 28.4863"
   id="svg2"
   sodipodi:docname="document.on.document.fill.svg"
   inkscape:version="1.4.2 (ebf0e940, 2025-05-08)"
   xmlns:inkscape="http://www.inkscape.org/namespaces/inkscape"
   xmlns:sodipodi="http://sodipodi.sourceforge.net/DTD/sodipodi-0.dtd"
   xmlns="http://www.w3.org/2000/svg"
   xmlns:svg="http://www.w3.org/2000/svg">
  <defs
     id="defs2" />
  <sodipodi:namedview
     id="namedview2"
     pagecolor="#ffffff"
     bordercolor="#000000"
     borderopacity="0.25"
     inkscape:showpageshadow="2"
     inkscape:pageopacity="0.0"
     inkscape:pagecheckerboard="0"
     inkscape:deskcolor="#d1d1d1"
     inkscape:zoom="34.024316"
     inkscape:cx="12.22655"
     inkscape:cy="14.239816"
     inkscape:window-width="976"
     inkscape:window-height="1186"
     inkscape:window-x="0"
     inkscape:window-y="30"
     inkscape:window-maximized="0"
     inkscape:current-layer="svg2" />
  <g
     id="g2">
    <path
       d="M15.293 7.46582C15.293 8.41309 15.9619 9.07715 16.9092 9.07715L22.5098 9.07715L22.5098 18.2031C22.5098 20.4198 21.3043 21.6448 19.0967 21.6499L19.0967 16.1035C19.1064 14.3604 18.623 13.0664 17.5537 11.9873L12.5391 6.91895C11.3965 5.76172 10.1416 5.24902 8.39355 5.24902L6.58203 5.2438L6.58203 4.98047C6.58203 2.82227 7.79785 1.57715 10.0098 1.57715L15.293 1.57715ZM17.876 2.68066L21.5381 6.46973C21.9629 6.9043 22.2559 7.24121 22.2852 7.6123L17.2949 7.6123C16.9287 7.6123 16.7676 7.44629 16.7676 7.0752L16.7627 1.95801C17.1387 1.9873 17.4902 2.27051 17.876 2.68066Z"
       fill="white"
       fill-opacity="0.425"
       id="path1" />
    <path
       d="M10.6201 14.5215L17.3242 14.5117C17.1973 14.043 16.8945 13.5742 16.4307 13.1006L11.416 8.03223C10.9424 7.55371 10.5273 7.23145 10.0488 7.08008L10.0488 13.9307C10.0488 14.3115 10.2539 14.5215 10.6201 14.5215ZM5.00977 26.8994L14.082 26.8994C16.2988 26.8994 17.5098 25.6738 17.5098 23.4521L17.5098 16.1084L10.3418 16.1084C9.10645 16.1084 8.46191 15.459 8.46191 14.2285L8.46191 6.82617L5.00977 6.82617C2.79785 6.82617 1.58203 8.04199 1.58203 10.2734L1.58203 23.4521C1.58203 25.6836 2.79785 26.8994 5.00977 26.8994Z"
       fill="white"
       fill-opacity="0.85"
       id="path2" />
  </g>
</svg>
